<?xml version="1.0" standalone="no"?>
<!DOCTYPE svg PUBLIC "-//W3C//DTD SVG 20010904//EN"
 "http://www.w3.org/TR/2001/REC-SVG-20010904/DTD/svg10.dtd">
<svg version="1.0" xmlns="http://www.w3.org/2000/svg"
 width="828.000000pt" height="828.000000pt" viewBox="0 0 828.000000 828.000000"
 preserveAspectRatio="xMidYMid meet">
<metadata>
Created by potrace 1.11, written by Peter Selinger 2001-2013
</metadata>
<g transform="translate(0.000000,828.000000) scale(0.100000,-0.100000)"
fill="#000000" stroke="none">
<path d="M1155 5837 c-60 -29 -87 -57 -114 -117 -20 -45 -21 -56 -21 -1700 0
-1036 4 -1677 10 -1715 13 -79 50 -131 119 -167 103 -54 229 -24 296 71 l30
43 5 1488 5 1488 358 -206 357 -205 0 -1226 c0 -754 4 -1249 10 -1286 13 -79
50 -131 119 -167 103 -54 229 -24 296 71 l30 43 5 1149 5 1149 2100 -1206
c1155 -663 2117 -1212 2139 -1220 85 -31 170 -11 237 56 32 32 49 59 57 92 9
35 12 473 12 1725 l0 1678 -24 50 c-42 92 -131 142 -231 132 -51 -5 -146 -58
-1151 -636 l-1095 -631 -1082 622 c-595 342 -1100 628 -1122 636 -88 31 -204
-7 -258 -84 -38 -54 -46 -100 -47 -268 0 -118 -2 -137 -15 -132 -8 3 -204 114
-435 247 -406 233 -423 242 -483 246 -51 3 -71 0 -112 -20z m2470 -1159 c523
-300 964 -552 980 -561 44 -22 116 -30 161 -18 21 6 476 262 1009 569 l970
559 3 -624 c1 -344 1 -903 0 -1243 l-3 -618 -2040 1172 -2040 1171 -3 73 c-2
41 1 72 5 69 4 -2 436 -250 958 -549z"/>
</g>
</svg>
