{
    "accessors" : [
        {
            "bufferView" : 0,
            "componentType" : 5123,
            "count" : 49152,
            "max" : [
                32767
            ],
            "min" : [
                0
            ],
            "type" : "SCALAR"
        },
        {
            "bufferView" : 1,
            "componentType" : 5126,
            "count" : 32768,
            "max" : [
                1.0120270252227783,
                -0.009192795492708683,
                1.0120270252227783
            ],
            "min" : [
                -1.0120270252227783,
                -0.2261427640914917,
                -1.0120269060134888
            ],
            "type" : "VEC3"
        },
        {
            "bufferView" : 2,
            "componentType" : 5126,
            "count" : 32768,
            "max" : [
                0.9999014735221863,
                0.6972669363021851,
                0.9999014139175415
            ],
            "min" : [
                -0.9999014735221863,
                -0.697272539138794,
                -0.9999014735221863
            ],
            "type" : "VEC3"
        },
        {
            "bufferView" : 3,
            "componentType" : 5123,
            "count" : 127374,
            "max" : [
                61861
            ],
            "min" : [
                0
            ],
            "type" : "SCALAR"
        },
        {
            "bufferView" : 4,
            "componentType" : 5126,
            "count" : 61862,
            "max" : [
                1.029707670211792,
                0.0,
                1.029707670211792
            ],
            "min" : [
                -1.029707670211792,
                -0.22101105749607086,
                -1.029707670211792
            ],
            "type" : "VEC3"
        },
        {
            "bufferView" : 5,
            "componentType" : 5126,
            "count" : 61862,
            "max" : [
                0.9999243021011353,
                1.0,
                0.9999243021011353
            ],
            "min" : [
                -0.99992436170578,
                -1.0,
                -0.9999243021011353
            ],
            "type" : "VEC3"
        },
        {
            "bufferView" : 6,
            "componentType" : 5123,
            "count" : 246,
            "max" : [
                159
            ],
            "min" : [
                0
            ],
            "type" : "SCALAR"
        },
        {
            "bufferView" : 7,
            "componentType" : 5126,
            "count" : 160,
            "max" : [
                3.949202299118042,
                0.002673987066373229,
                1.0
            ],
            "min" : [
                -1.0,
                -0.9340293407440186,
                -4.481877326965332
            ],
            "type" : "VEC3"
        },
        {
            "bufferView" : 8,
            "componentType" : 5126,
            "count" : 160,
            "max" : [
                1.0,
                1.0,
                1.0
            ],
            "min" : [
                -1.0,
                -1.0,
                -1.0
            ],
            "type" : "VEC3"
        }
    ],
    "asset" : {
        "generator" : "Khronos Blender glTF 2.0 exporter",
        "version" : "2.0"
    },
    "bufferViews" : [
        {
            "buffer" : 0,
            "byteLength" : 98304,
            "byteOffset" : 0,
            "target" : 34963
        },
        {
            "buffer" : 0,
            "byteLength" : 393216,
            "byteOffset" : 98304,
            "target" : 34962
        },
        {
            "buffer" : 0,
            "byteLength" : 393216,
            "byteOffset" : 491520,
            "target" : 34962
        },
        {
            "buffer" : 0,
            "byteLength" : 254748,
            "byteOffset" : 884736,
            "target" : 34963
        },
        {
            "buffer" : 0,
            "byteLength" : 742344,
            "byteOffset" : 1139484,
            "target" : 34962
        },
        {
            "buffer" : 0,
            "byteLength" : 742344,
            "byteOffset" : 1881828,
            "target" : 34962
        },
        {
            "buffer" : 0,
            "byteLength" : 492,
            "byteOffset" : 2624172,
            "target" : 34963
        },
        {
            "buffer" : 0,
            "byteLength" : 1920,
            "byteOffset" : 2624664,
            "target" : 34962
        },
        {
            "buffer" : 0,
            "byteLength" : 1920,
            "byteOffset" : 2626584,
            "target" : 34962
        }
    ],
    "buffers" : [
        {
            "byteLength" : 2628504,
            "uri" : "data:application/octet-stream;base64,"
        }
    ],
    "materials" : [
        {
            "name" : "Material",
            "pbrMetallicRoughness" : {
                "baseColorFactor" : [
                    0.008487603194826887,
                    0.010496488369948986,
                    0.01807448592893013,
                    1.0
                ],
                "metallicFactor" : 0.0
            }
        }
    ],
    "meshes" : [
        {
            "name" : "Circle.001",
            "primitives" : [
                {
                    "attributes" : {
                        "NORMAL" : 2,
                        "POSITION" : 1
                    },
                    "indices" : 0,
                    "material" : 0
                }
            ]
        },
        {
            "name" : "Circle",
            "primitives" : [
                {
                    "attributes" : {
                        "NORMAL" : 5,
                        "POSITION" : 4
                    },
                    "indices" : 3,
                    "material" : 0
                }
            ]
        },
        {
            "name" : "Plane",
            "primitives" : [
                {
                    "attributes" : {
                        "NORMAL" : 8,
                        "POSITION" : 7
                    },
                    "indices" : 6,
                    "material" : 0
                }
            ]
        }
    ],
    "nodes" : [
        {
            "name" : "Camera",
            "rotation" : [
                0.48170700669288635,
                0.3342514932155609,
                -0.21292175352573395,
                0.7816000580787659
            ],
            "scale" : [
                1.0,
                1.0,
                0.9999999403953552
            ],
            "translation" : [
                7.481131553649902,
                5.34366512298584,
                6.5076398849487305
            ]
        },
        {
            "mesh" : 1,
            "name" : "great_circle",
            "rotation" : [
                0.7071068286895752,
                0.0,
                -0.0,
                0.7071068286895752
            ],
            "scale" : [
                4.524660587310791,
                4.524660587310791,
                4.524660587310791
            ],
            "translation" : [
                -0.0266876220703125,
                0.0173797607421875,
                0.039031982421875
            ]
        },
        {
            "name" : "Lamp",
            "rotation" : [
                0.16907575726509094,
                0.7558802962303162,
                -0.27217137813568115,
                0.570947527885437
            ],
            "scale" : [
                1.0,
                1.0,
                0.9999999403953552
            ],
            "translation" : [
                4.076245307922363,
                5.903861999511719,
                -1.0054539442062378
            ]
        },
        {
            "mesh" : 2,
            "name" : "logotype",
            "rotation" : [
                0.7071068286895752,
                0.0,
                -0.0,
                0.7071068286895752
            ],
            "scale" : [
                1.0707919597625732,
                1.0707919597625732,
                1.0707919597625732
            ],
            "translation" : [
                -1.6151410341262817,
                -1.8963338136672974,
                -0.038288116455078125
            ]
        },
        {
            "mesh" : 0,
            "name" : "small_circle",
            "rotation" : [
                0.7071068286895752,
                0.0,
                -0.0,
                0.7071068286895752
            ],
            "scale" : [
                4.249251365661621,
                4.249251365661621,
                4.249251365661621
            ],
            "translation" : [
                -0.014672989957034588,
                0.020038705319166183,
                0.01166343130171299
            ]
        }
    ],
    "scene" : 0,
    "scenes" : [
        {
            "name" : "Scene",
            "nodes" : [
                4,
                1,
                3,
                2,
                0
            ]
        }
    ]
}
